<svg xmlns="http://www.w3.org/2000/svg" width="48" height="48" fill="none"><rect width="47" height="47" x=".5" y=".5" fill="#F7F7F7" rx="23.5"/><rect width="47" height="47" x=".5" y=".5" stroke="#D3D3D3" stroke-dasharray="4 4" rx="23.5"/><path stroke="#000" stroke-linecap="round" stroke-linejoin="round" d="M35 31a2 2 0 0 1-2 2H15a2 2 0 0 1-2-2V20a2 2 0 0 1 2-2h4l2-3h6l2 3h4a2 2 0 0 1 2 2v11Z"/><path stroke="#000" stroke-linecap="round" stroke-linejoin="round" d="M24 29a4 4 0 1 0 0-8 4 4 0 0 0 0 8Z"/></svg>