<svg xmlns="http://www.w3.org/2000/svg" width="132" height="29" fill="none"><path fill="#fff" d="M10.364 15.34c0-.755-.103-1.295-.309-1.621-.205-.326-.531-.523-.977-.591-.446-.07-1.037-.086-1.774-.052l-1.878.077v5.89c0 .462-.008.857-.025 1.183 0 .325-.017.6-.052.823l4.912-.078c.755-.017 1.406-.137 1.955-.36.548-.24.977-.651 1.286-1.234.308-.583.462-1.38.462-2.392h.875L14.685 22H1.415v-.849c.651-.034 1.097-.18 1.337-.437.24-.274.368-.643.386-1.106.034-.48.051-1.02.051-1.62V6.878c0-.343.009-.668.026-.977.017-.326.034-.617.051-.874l-.926.051-.926.051V3.998h12.37l.13 4.5h-.85c0-1.011-.154-1.774-.463-2.288-.308-.532-.728-.883-1.26-1.055-.514-.188-1.097-.274-1.748-.257l-2.212.051c-.634.018-1.089.138-1.363.36-.274.223-.446.558-.514 1.003-.052.429-.078.995-.078 1.698v4.114l4.835.026-.18-2.211h1.132v5.4h-.849Zm12.038 7.072c-.858 0-1.62-.12-2.29-.36-.668-.223-1.216-.48-1.645-.772l.103.9h-1.08l-.155-4.423h.798c.034.703.231 1.337.591 1.903.36.548.823.977 1.389 1.286a3.754 3.754 0 0 0 1.826.462 4.28 4.28 0 0 0 1.311-.205 2.882 2.882 0 0 0 1.08-.669c.292-.308.438-.694.438-1.157 0-.48-.146-.875-.438-1.183-.274-.326-.642-.609-1.105-.849-.463-.24-.96-.463-1.492-.668a59.008 59.008 0 0 1-1.543-.643 8.368 8.368 0 0 1-1.44-.798 3.6 3.6 0 0 1-1.029-1.131c-.257-.446-.386-.995-.386-1.646 0-.36.069-.755.206-1.183.137-.429.369-.832.694-1.209.326-.394.772-.711 1.338-.951.566-.258 1.286-.386 2.16-.386.463 0 .977.077 1.543.231.566.155 1.114.446 1.646.875l-.052-.978h1.08v4.501h-.822a4.974 4.974 0 0 0-.412-1.723 3.412 3.412 0 0 0-1.054-1.389c-.463-.377-1.063-.566-1.8-.566-.79 0-1.406.198-1.852.592-.446.394-.669.848-.669 1.363 0 .531.163.977.489 1.337.343.343.78.643 1.312.9a26.43 26.43 0 0 0 1.697.746c.651.274 1.286.575 1.903.9a4.709 4.709 0 0 1 1.517 1.235c.395.48.592 1.105.592 1.877 0 .857-.223 1.569-.669 2.135A3.665 3.665 0 0 1 24.511 22a5.503 5.503 0 0 1-2.11.412Zm12.907 0a6.743 6.743 0 0 1-3.189-.772 6.107 6.107 0 0 1-2.315-2.263c-.565-.995-.848-2.186-.848-3.575 0-.891.163-1.757.488-2.597.326-.84.78-1.595 1.363-2.264a6.593 6.593 0 0 1 2.135-1.62c.823-.394 1.732-.591 2.726-.591.96 0 1.792.146 2.495.437.72.291 1.277.677 1.671 1.157.395.48.592 1.003.592 1.57 0 .376-.103.702-.309.976-.206.258-.506.386-.9.386-.429.017-.737-.111-.926-.386-.171-.291-.257-.548-.257-.771 0-.172.026-.343.077-.514.052-.19.154-.36.309-.515-.137-.411-.377-.711-.72-.9a2.825 2.825 0 0 0-1.08-.386 4.975 4.975 0 0 0-.9-.103c-1.166 0-2.152.472-2.958 1.415-.789.926-1.183 2.28-1.183 4.063 0 1.149.18 2.169.54 3.06.377.892.9 1.595 1.569 2.11.668.497 1.44.745 2.314.745.806 0 1.578-.214 2.315-.643.737-.428 1.312-.951 1.723-1.569l.669.515a5.89 5.89 0 0 1-1.62 1.749 6.607 6.607 0 0 1-1.93.977 6.155 6.155 0 0 1-1.851.308ZM50.489 22a8.033 8.033 0 0 1-.103-.771 10.77 10.77 0 0 0-.077-.695 7.314 7.314 0 0 1-1.903 1.389 4.81 4.81 0 0 1-2.134.489c-1.303 0-2.272-.292-2.907-.875-.634-.6-.951-1.329-.951-2.186 0-.789.24-1.466.72-2.032.497-.582 1.132-1.054 1.903-1.414a10.299 10.299 0 0 1 2.546-.823 12.173 12.173 0 0 1 2.675-.257V13.23c0-.6-.052-1.165-.155-1.697-.102-.531-.325-.969-.668-1.312-.343-.342-.892-.522-1.646-.54a3.885 3.885 0 0 0-1.543.283 2.068 2.068 0 0 0-1.132 1.055c.138.137.223.3.258.488.05.172.077.335.077.489 0 .206-.086.446-.258.72-.171.257-.471.377-.9.36-.36 0-.634-.12-.823-.36a1.481 1.481 0 0 1-.283-.9c0-.583.215-1.106.643-1.569.446-.463 1.055-.831 1.826-1.106.772-.274 1.646-.411 2.624-.411 1.44 0 2.503.386 3.189 1.157.685.755 1.02 1.955 1.002 3.6v1.93c0 .634-.008 1.277-.025 1.928v1.929c0 .274-.009.549-.026.823a25.29 25.29 0 0 1-.077.926l.9-.052.926-.051V22h-3.678Zm-.231-6.3c-.583.016-1.2.094-1.852.23a7.403 7.403 0 0 0-1.774.567c-.532.257-.969.6-1.312 1.028-.326.412-.48.917-.463 1.518.034.634.24 1.114.617 1.44.395.308.858.463 1.39.463.702 0 1.31-.129 1.825-.386a7.071 7.071 0 0 0 1.569-1.132 6.865 6.865 0 0 1-.026-.617v-1.517c.017-.463.026-.995.026-1.595ZM55.7 28.557v-.772c.532 0 .9-.137 1.106-.411.206-.257.326-.626.36-1.106.034-.463.052-1.003.052-1.62l.051-12.422v-.823c.017-.274.051-.557.103-.848l-.926.051-.9.052v-1.08c.754 0 1.32-.035 1.697-.103.395-.069.677-.155.849-.258.189-.102.343-.214.463-.334h.771a43.427 43.427 0 0 1 .103 1.389 5.91 5.91 0 0 1 1.826-1.106 5.72 5.72 0 0 1 2.16-.437c.995 0 1.92.257 2.778.771.857.515 1.552 1.252 2.083 2.212.532.943.797 2.075.797 3.395 0 1.457-.308 2.734-.925 3.832-.6 1.097-1.398 1.954-2.392 2.571-.995.6-2.075.9-3.24.9-.6 0-1.158-.077-1.672-.231a5.452 5.452 0 0 1-1.415-.617v4.269c0 .343-.008.643-.025.9 0 .274-.026.557-.078.849l.798-.052c.274 0 .548-.008.823-.026v1.055H55.7Zm6.764-7.175c.823 0 1.526-.249 2.109-.746.6-.514 1.054-1.209 1.363-2.083.325-.892.488-1.903.488-3.035a8.48 8.48 0 0 0-.411-2.649c-.257-.857-.677-1.551-1.26-2.083-.566-.531-1.32-.797-2.263-.797-.583 0-1.15.146-1.698.437a4.715 4.715 0 0 0-1.337 1.003v.309c.017.12.026.343.026.668v1.415c0 .617-.009 1.457-.026 2.52v4.038c.429.326.892.574 1.389.746a5.088 5.088 0 0 0 1.62.257ZM77.5 22.412c-1.183 0-2.254-.275-3.214-.823-.943-.566-1.69-1.355-2.238-2.366-.548-1.03-.823-2.238-.823-3.627 0-1.2.266-2.323.798-3.369a6.616 6.616 0 0 1 2.288-2.52c.978-.651 2.11-.977 3.395-.977.72 0 1.389.12 2.006.36a4.4 4.4 0 0 1 1.672 1.054c.48.463.857 1.055 1.131 1.775.275.703.412 1.534.412 2.494l-9.053.155c0 1.303.137 2.451.412 3.446.291.977.754 1.74 1.388 2.289.635.531 1.45.797 2.444.797.531 0 1.071-.094 1.62-.283a6.361 6.361 0 0 0 1.569-.771c.48-.326.865-.686 1.157-1.08l.617.514c-.463.72-1.02 1.294-1.672 1.723a7.044 7.044 0 0 1-2.006.926c-.685.188-1.32.282-1.903.282Zm-3.549-8.924h6.558c0-.618-.094-1.21-.283-1.775-.171-.583-.463-1.054-.874-1.414-.412-.378-.952-.566-1.62-.566-.995 0-1.826.3-2.495.9-.651.583-1.08 1.534-1.286 2.855Zm13.27 8.924c-.394 0-.746-.155-1.054-.463a1.712 1.712 0 0 1-.437-1.183c0-.463.154-.858.463-1.183.308-.326.66-.49 1.054-.49.429 0 .78.164 1.055.49.29.325.437.72.437 1.183 0 .463-.155.857-.463 1.183-.309.308-.66.462-1.055.462ZM94.11 22.243a2.35 2.35 0 0 0 1.413-.44c.41-.297.674-.696.792-1.197v-1.25c-.023 0-.16.01-.413.033-.248.023-.41.036-.487.04-.978.087-1.66.247-2.048.48-.384.235-.575.612-.575 1.13 0 .397.117.697.351.9.235.202.557.304.967.304Zm2.455.757a22.13 22.13 0 0 1-.196-.933c-.41.41-.796.694-1.156.852-.361.158-.785.236-1.272.236-.694 0-1.253-.18-1.677-.54-.419-.365-.628-.888-.628-1.57 0-.756.286-1.318.858-1.683.577-.365 1.407-.592 2.489-.683.148-.013.371-.031.669-.054l.676-.06v-.657c0-.522-.121-.91-.365-1.163-.243-.252-.626-.378-1.15-.378-.73 0-1.467.18-2.21.54a18.67 18.67 0 0 1-.176-.466 21.005 21.005 0 0 0-.15-.405c.33-.185.72-.332 1.17-.44a5.747 5.747 0 0 1 1.387-.169c.924 0 1.589.203 1.995.608.41.402.615 1.087.615 2.056V23h-.88Zm2.57-2.475v-4.942h1.135v4.956c0 .324.045.6.135.825.095.225.228.4.399.527.176.122.372.21.589.264.221.054.473.08.757.08.586 0 1.041-.127 1.366-.384.329-.257.493-.695.493-1.312v-4.957h1.136v4.943c0 .379-.054.72-.162 1.021a2.23 2.23 0 0 1-.439.758 2.273 2.273 0 0 1-.656.493c-.257.13-.53.226-.818.284a4.554 4.554 0 0 1-.92.088c-.325 0-.631-.03-.92-.088a3.325 3.325 0 0 1-.825-.284 2.575 2.575 0 0 1-.669-.5 2.221 2.221 0 0 1-.44-.758 2.992 2.992 0 0 1-.162-1.014Zm10.061 2.61c-.731 0-1.249-.178-1.556-.534-.306-.356-.468-.93-.486-1.724V16.42h-1.103l.048-.744 1.048-.095.385-1.697.744-.027v1.724h2.062v.839h-2.062v4.253c0 .564.086.96.257 1.19.171.23.464.345.879.345.149 0 .471-.036.967-.108l.047.892c-.536.095-.946.142-1.23.142Zm7.431-.135v-4.483c0-.744-.12-1.285-.359-1.623-.234-.338-.647-.507-1.237-.507-.568 0-1.048.142-1.44.426-.388.284-.64.652-.758 1.102-.04.338-.061.715-.061 1.13V23h-1.129V12.702l1.129-.068v3.016c0 .257-.009.575-.027.954.636-.785 1.479-1.177 2.529-1.177 1.655 0 2.482.971 2.482 2.914V23h-1.129Zm3.347-3.692c0 .88.193 1.585.581 2.116.392.528.963.792 1.711.792.739 0 1.296-.264 1.67-.792.379-.527.568-1.237.568-2.13 0-.905-.187-1.618-.561-2.136-.37-.523-.936-.784-1.697-.784-.74 0-1.303.266-1.691.798-.388.531-.581 1.244-.581 2.136Zm5.7-.02c0 1.15-.307 2.082-.92 2.8-.613.711-1.46 1.067-2.542 1.067-1.042 0-1.871-.36-2.489-1.081-.613-.722-.919-1.648-.919-2.78 0-1.153.309-2.087.926-2.799.618-.712 1.465-1.068 2.543-1.068 1.059 0 1.891.358 2.495 1.075.604.712.906 1.64.906 2.786Zm4.929-3.773c.203 0 .388.013.554.04l-.04 1.042a3.232 3.232 0 0 0-.541-.054c-.631 0-1.145.22-1.542.662-.392.438-.588.98-.588 1.63V23h-1.129l-.007-7.418h.94l.108 1.332c.257-.419.584-.757.98-1.014a2.29 2.29 0 0 1 1.265-.385Z"/></svg>