<svg xmlns="http://www.w3.org/2000/svg" width="24" height="24" fill="none"><path fill="#E86961" fill-rule="evenodd" d="M8.94 2.94A1.5 1.5 0 0 1 10 2.5h4A1.5 1.5 0 0 1 15.5 4v1.5h-7V4c0-.398.158-.78.44-1.06ZM7.5 5.5V4A2.5 2.5 0 0 1 10 1.5h4A2.5 2.5 0 0 1 16.5 4v1.5H21a.5.5 0 0 1 0 1h-1.5V20a2.5 2.5 0 0 1-2.5 2.5H7A2.5 2.5 0 0 1 4.5 20V6.5H3a.5.5 0 0 1 0-1h4.5Zm-2 1h13V20a1.5 1.5 0 0 1-1.5 1.5H7A1.5 1.5 0 0 1 5.5 20V6.5Zm4.5 4a.5.5 0 0 1 .5.5v6a.5.5 0 0 1-1 0v-6a.5.5 0 0 1 .5-.5Zm4.5.5a.5.5 0 0 0-1 0v6a.5.5 0 0 0 1 0v-6Z" clip-rule="evenodd"/></svg>